PathFileType	4	(X/Y/Z)	HSS_walk2.trc
DataRate	CameraRate	NumFrames	NumMarkers	Units	OrigDataRate	OrigDataStartFrame	OrigNumFrames
120.0	120.0	4	44	mm	120.0	247	984
Frame#	Time		R.Shoulder		Offset		L.Shoulder		R.Elbow		R.Wrist.Radial		R.Wrist		R.Hand		L.Elbow		L.Wrist.Radial		L.Wrist		L.Hand		R.Hip		V.Sacral		L.PSIS		L.Hip		R.Thigh.Upper		R.Thigh.Front		R.Thigh.Rear		X.Shell.Lower.Thigh.Right		R.Knee.Lateral		R.Shank.Upper		R.Shank.Front		R.Shank.Rear		X.Shell.Lower.Shank.Right		R.Ankle.Lateral		R.Heel		R.Toe		L.Thigh.Upper		L.Thigh.Front		L.Thigh.Rear		X.Shell.Lower.Thigh.Left		L.Knee.Lateral		L.Shank.Upper		L.Shank.Front		L.Shank.Rear		X.Shell.Lower.Shank.Left		L.Ankle.Lateral		L.Heel		L.Toe		R.Troc		L.Troc		R.PSIS		L.ASIS		R.ASIS
			X1	Y1	Z1	X2	Y2	Z2	X3	Y3	Z3	X4	Y4	Z4	X5	Y5	Z5	X6	Y6	Z6	X7	Y7	Z7	X8	Y8	Z8	X9	Y9	Z9	X10	Y10	Z10	X11	Y11	Z11	X12	Y12	Z12	X13	Y13	Z13	X14	Y14	Z14	X15	Y15	Z15	X16	Y16	Z16	X17	Y17	Z17	X18	Y18	Z18	X19	Y19	Z19	X20	Y20	Z20	X21	Y21	Z21	X22	Y22	Z22	X23	Y23	Z23	X24	Y24	Z24	X25	Y25	Z25	X26	Y26	Z26	X27	Y27	Z27	X28	Y28	Z28	X29	Y29	Z29	X30	Y30	Z30	X31	Y31	Z31	X32	Y32	Z32	X33	Y33	Z33	X34	Y34	Z34	X35	Y35	Z35	X36	Y36	Z36	X37	Y37	Z37	X38	Y38	Z38	X39	Y39	Z39	X40	Y40	Z40	X41	Y41	Z41	X42	Y42	Z42	X43	Y43	Z43	X44	Y44	Z44

247	2.05000	-1718.96521	1483.03271	-30.89914	-1812.40039	1375.07471	-307.76071	-1717.63037	1491.27222	-394.42261	-1718.96570	1117.64099	25.81765	-1561.03772	913.86536	17.17365	-1595.16833	904.59686	82.44650	-1541.13782	835.72510	74.01691	-1709.36340	1129.62488	-461.58566	-1577.98352	930.34100	-508.17831	-1552.17004	926.91742	-440.84622	-1528.29504	859.16351	-493.51993	-1656.18494	1037.35291	-65.49834	-1776.15308	1021.63458	-214.19493	-1775.57605	1027.84253	-254.83989	-1655.51270	1037.75085	-361.84879	-1621.29529	692.42450	-34.46493	-1589.16675	654.80994	-51.20611	-1645.69031	654.69666	-26.17956	-1619.25500	621.45502	-44.82605	-1685.45972	515.43152	-58.42733	-1701.39844	367.91934	-12.22544	-1674.46179	324.84378	-36.96740	-1733.49634	331.54504	-23.87505	-1710.91907	291.48090	-34.25624	-1721.35376	68.91001	-86.91029	-1763.97144	31.86885	-135.92720	-1566.71008	32.21640	-84.57081	-1612.66272	691.77527	-384.51810	-1594.89758	642.21472	-360.67606	-1643.38782	656.56165	-398.27908	-1619.38403	621.28040	-385.03641	-1692.05823	507.51300	-364.53314	-1730.45093	307.32339	-403.82797	-1702.71667	283.74103	-387.55014	-1761.43079	269.23654	-389.20078	-1738.85498	237.95610	-391.47592	-1724.58813	72.00167	-344.85254	-1777.85840	33.60438	-296.54584	-1580.15967	32.13276	-340.48755	-1647.64673	879.20703	-30.34668	-1650.11902	891.70905	-398.17053	-1776.19543	1027.35461	-169.70512	-1590.46924	1000.03528	-321.61188	-1597.06091	999.69690	-96.67873
248	2.05833	-1719.08496	1483.01990	-30.91305	-1812.44568	1375.05005	-307.79239	-1717.66626	1491.22461	-394.48657	-1719.05969	1117.61902	25.77604	-1561.01147	914.25519	16.96544	-1595.13989	904.65125	82.32483	-1541.07861	835.76776	73.91817	-1709.35315	1129.52026	-461.44421	-1577.86511	930.28162	-507.87445	-1551.95679	926.91498	-440.45477	-1528.11047	859.16541	-492.87616	-1656.17639	1037.32507	-65.55161	-1776.15601	1021.65009	-214.21477	-1775.58423	1027.84668	-254.88905	-1655.52588	1037.76587	-361.89789	-1621.33276	692.43829	-34.49377	-1589.19507	654.82367	-51.18378	-1645.71338	654.69653	-26.19853	-1619.30408	621.45789	-44.83932	-1685.47742	515.43188	-58.50586	-1701.40454	367.95026	-12.23730	-1674.46021	324.84802	-36.98128	-1733.49854	331.54504	-23.86080	-1710.90430	291.47632	-34.29378	-1721.37671	68.95848	-86.85818	-1763.98486	31.86094	-135.91667	-1566.70996	32.20366	-84.55562	-1612.67615	691.79730	-384.57602	-1594.92603	642.28235	-360.77295	-1643.39429	656.56213	-398.31305	-1619.41772	621.27692	-385.05228	-1692.04248	507.49454	-364.54340	-1730.49182	307.34128	-403.80023	-1702.71741	283.73663	-387.56519	-1761.42297	269.24228	-389.24258	-1738.88306	237.94386	-391.47360	-1724.58789	72.03325	-344.86810	-1777.88611	33.62847	-296.52747	-1580.15649	32.13440	-340.51477	-1647.75793	879.21539	-30.34334	-1650.15576	891.72614	-398.13034	-1776.25134	1027.34277	-169.76775	-1590.50623	1000.05762	-321.59311	-1597.04822	999.76978	-96.64384
249	2.06667	-1719.19983	1483.04651	-30.96841	-1812.48230	1375.02563	-307.81647	-1717.70544	1491.22107	-394.47983	-1719.15869	1117.61194	25.74209	-1560.99695	914.28357	16.92670	-1595.14417	904.68115	82.28576	-1541.03540	835.83594	73.81754	-1709.33142	1129.44617	-461.36115	-1577.73035	930.25012	-507.61197	-1551.65308	926.89313	-439.88354	-1527.94226	859.15240	-492.40891	-1656.33618	1037.34399	-65.54951	-1776.24304	1021.65356	-214.25676	-1775.63232	1027.86560	-254.92671	-1655.55554	1037.77905	-361.90628	-1621.32898	692.42310	-34.49120	-1589.22583	654.82214	-51.19056	-1645.73633	654.68945	-26.24448	-1619.31641	621.45551	-44.85406	-1685.47864	515.42542	-58.45393	-1701.39050	367.95587	-12.24102	-1674.44885	324.82553	-37.04770	-1733.49524	331.51315	-23.91274	-1710.89111	291.46066	-34.31490	-1721.35889	68.92535	-86.87400	-1763.97888	31.86471	-135.91116	-1566.72852	32.20332	-84.56908	-1612.68103	691.79553	-384.59824	-1594.92725	642.31720	-360.83014	-1643.41614	656.56763	-398.32782	-1619.40637	621.30225	-385.07584	-1692.06238	507.52835	-364.54129	-1730.45068	307.26572	-403.83035	-1702.82312	283.92865	-387.22311	-1761.40894	269.23184	-389.23813	-1738.86438	237.94681	-391.50833	-1724.59375	72.01226	-344.86047	-1777.83301	33.60716	-296.55444	-1580.16528	32.12849	-340.52240	-1647.84119	879.21179	-30.35470	-1650.19519	891.74335	-398.23389	-1776.30786	1027.34778	-169.82213	-1590.53149	1000.05524	-321.61780	-1597.21350	999.74957	-96.73863
250	2.07500	-1719.31909	1483.02649	-30.99092	-1812.54053	1375.00269	-307.82550	-1717.74536	1491.20947	-394.52209	-1719.23706	1117.58325	25.74006	-1560.92859	914.40344	16.79155	-1595.12720	904.71484	82.23808	-1541.01025	835.86493	73.72136	-1709.30396	1129.36902	-461.27682	-1577.54919	930.18335	-507.32556	-1551.72009	926.81769	-439.50775	-1527.73438	859.16595	-492.06345	-1656.36523	1037.33093	-65.60968	-1776.29773	1021.61005	-214.31908	-1775.67432	1027.87964	-254.98666	-1655.55066	1037.79236	-361.93338	-1621.35510	692.40784	-34.55595	-1589.25720	654.85046	-51.24712	-1645.76111	654.68268	-26.29459	-1619.34961	621.46088	-44.89861	-1685.48657	515.40735	-58.49094	-1701.37537	367.92645	-12.27344	-1674.44373	324.82608	-37.08389	-1733.49536	331.53564	-23.91244	-1710.89307	291.47635	-34.27199	-1721.35059	68.92179	-86.91984	-1763.96375	31.85069	-135.89580	-1566.73340	32.22696	-84.55814	-1612.70007	691.81561	-384.66452	-1594.92896	642.30597	-360.79260	-1643.43042	656.54919	-398.37100	-1619.42004	621.31464	-385.15671	-1692.06860	507.52942	-364.61938	-1730.47681	307.28900	-403.85910	-1702.81494	283.92041	-387.32037	-1761.40454	269.21579	-389.24741	-1738.86755	237.94109	-391.51984	-1724.56287	71.98141	-344.84409	-1777.87781	33.62179	-296.55768	-1580.14795	32.14782	-340.49435	-1647.92798	879.20819	-30.37602	-1649.95789	891.34186	-396.67984	-1776.36609	1027.35022	-169.86420	-1590.58521	1000.07159	-321.76801	-1597.12817	999.86176	-96.75330
